HIERARCHY
ROOT SpineBase
{
  OFFSET 0.000000 0.000000 0.000000
  CHANNELS 6 Xposition Yposition Zposition Zrotation Xrotation Yrotation
  JOINT SpineMid
  {
    OFFSET 0.000000 28.755734 0.000000
    CHANNELS 3 Zrotation Xrotation Yrotation
    JOINT SpineShoulder
    {
      OFFSET -0.014034 21.416155 -0.715439
      CHANNELS 3 Zrotation Xrotation Yrotation
      JOINT Neck
      {
        OFFSET -0.031211 7.102587 -0.543718
        CHANNELS 3 Zrotation Xrotation Yrotation
        JOINT Head
        {
          OFFSET -3.549197 12.226725 0.418904
          CHANNELS 3 Zrotation Xrotation Yrotation
          End Site
          {
            OFFSET 0 0 0
          }
        }
      }
      JOINT ShoulderLeft
      {
        OFFSET -15.173570 -3.894518 7.726563
        CHANNELS 3 Zrotation Xrotation Yrotation
        JOINT ElbowLeft
        {
          OFFSET -3.785189 -23.852742 2.206602
          CHANNELS 3 Zrotation Xrotation Yrotation
          JOINT WristLeft
          {
            OFFSET 2.299649 -22.760420 -6.214113
            CHANNELS 3 Zrotation Xrotation Yrotation
            JOINT HandLeft
            {
              OFFSET -0.228767 -6.588602 -0.532652
              CHANNELS 3 Zrotation Xrotation Yrotation
              JOINT HandTipLeft
              {
                OFFSET 1.329386 -5.608134 -0.805494
                CHANNELS 3 Zrotation Xrotation Yrotation
                End Site
                {
                  OFFSET 0 0 0
                }
              }
              JOINT ThumbLeft
              {
                OFFSET -3.255037 0.116424 -1.470994
                CHANNELS 3 Zrotation Xrotation Yrotation
                End Site
                {
                  OFFSET 0 0 0
                }
              }
            }
          }
        }
      }
      JOINT ShoulderRight
      {
        OFFSET 12.947820 -2.424282 -8.312482
        CHANNELS 3 Zrotation Xrotation Yrotation
        JOINT ElbowRight
        {
          OFFSET 6.098684 -23.953190 -3.438993
          CHANNELS 3 Zrotation Xrotation Yrotation
          JOINT WristRight
          {
            OFFSET -3.129823 -20.833059 -4.099063
            CHANNELS 3 Zrotation Xrotation Yrotation
            JOINT HandRight
            {
              OFFSET -2.119034 -5.293278 -1.205005
              CHANNELS 3 Zrotation Xrotation Yrotation
              JOINT HandTipRight
              {
                OFFSET -1.227760 -5.590646 -0.461789
                CHANNELS 3 Zrotation Xrotation Yrotation
                End Site
                {
                  OFFSET 0 0 0
                }
              }
              JOINT ThumbRight
              {
                OFFSET -2.622037 0.574730 -3.195711
                CHANNELS 3 Zrotation Xrotation Yrotation
                End Site
                {
                  OFFSET 0 0 0
                }
              }
            }
          }
        }
      }
    }
  }
  JOINT HipLeft
  {
    OFFSET -6.499510 0.641818 -0.410146
    CHANNELS 3 Zrotation Xrotation Yrotation
    JOINT KneeLeft
    {
      OFFSET 3.956527 -27.729987 2.614845
      CHANNELS 3 Zrotation Xrotation Yrotation
      JOINT AnkleLeft
      {
        OFFSET 6.817703 -32.194338 8.867040
        CHANNELS 3 Zrotation Xrotation Yrotation
        JOINT FootLeft
        {
          OFFSET -4.276929 -4.195509 -10.516487
          CHANNELS 3 Zrotation Xrotation Yrotation
          End Site
          {
            OFFSET 0 0 0
          }
        }
      }
    }
  }
  JOINT HipRight
  {
    OFFSET 5.925184 1.242329 -6.141228
    CHANNELS 3 Zrotation Xrotation Yrotation
    JOINT KneeRight
    {
      OFFSET 4.533985 -29.463404 3.024291
      CHANNELS 3 Zrotation Xrotation Yrotation
      JOINT AnkleRight
      {
        OFFSET 5.834102 -30.356464 6.331831
        CHANNELS 3 Zrotation Xrotation Yrotation
        JOINT FootRight
        {
          OFFSET -4.874870 -4.287189 -9.828033
          CHANNELS 3 Zrotation Xrotation Yrotation
          End Site
          {
            OFFSET 0 0 0
          }
        }
      }
    }
  }
}
MOTION
Frames: 10
Frame Time: 0.033333
36.848566 65.772289 335.946745 -0.338751 -2.848926 11.831595 0.134514 -0.082490 -11.852012 0.051905 -0.057421 -0.016667 -9.840412 -5.414281 -2.351157 0.000000 0.000000 0.000000 -11.088080 11.827510 -0.964920 1.437994 -1.377819 5.801858 7.610905 19.281266 -3.268667 -10.514197 -16.558790 0.729643 0.000000 0.000000 0.000000 0.000000 0.000000 0.000000 -0.047513 -3.913542 -1.722343 -9.143785 21.875401 3.331530 -24.545611 2.424706 -1.414406 16.382061 7.506298 -1.000292 0.000000 0.000000 0.000000 0.000000 0.000000 0.000000 -5.282684 1.368602 -12.560568 1.186118 1.970610 -0.432368 8.213372 3.560467 -10.520029 0.000000 0.000000 0.000000 9.442708 16.713573 -10.362520 0.446982 -14.230350 -0.560605 -1.731356 3.041734 -16.097257 0.000000 0.000000 0.000000
38.418897 65.819048 335.198969 -0.938180 -2.955291 11.522122 0.184424 -0.048981 -11.578124 0.097308 -0.030077 -0.038590 -11.001126 -6.078025 -2.589719 0.000000 0.000000 0.000000 -13.436892 11.551247 -0.809748 2.357786 0.157151 6.832551 11.940255 17.849320 -4.071459 -15.730088 -14.632524 0.410006 0.000000 0.000000 0.000000 0.000000 0.000000 0.000000 -1.523216 -5.416538 -1.861625 -7.766211 25.028035 3.669410 -25.448153 -1.586832 -1.686030 18.145233 13.640460 -2.362257 0.000000 0.000000 0.000000 0.000000 0.000000 0.000000 -5.964110 1.141587 -12.430669 1.199733 1.693172 -0.740194 9.484979 4.405604 -10.438148 0.000000 0.000000 0.000000 10.300381 16.017533 -10.126657 0.829756 -12.987021 -0.155948 -2.443597 2.493496 -16.595759 0.000000 0.000000 0.000000
40.156232 65.897967 334.344906 -1.494975 -3.170325 11.846270 0.219157 -0.022711 -11.937968 0.105840 -0.013384 -0.061589 -12.308087 -6.574793 -2.803168 0.000000 0.000000 0.000000 -15.261776 10.870360 -0.641474 2.413365 1.643973 7.762851 15.070233 16.903177 -4.579060 -20.079192 -16.046033 -1.134466 0.000000 0.000000 0.000000 0.000000 0.000000 0.000000 -2.549964 -7.072674 -2.178420 -6.730639 28.415632 4.128536 -25.383782 -5.864548 -2.046347 17.883156 18.372614 -3.593632 0.000000 0.000000 0.000000 0.000000 0.000000 0.000000 -6.643647 1.140492 -12.912030 1.097313 1.429291 -1.074917 10.584630 5.155157 -9.586702 0.000000 0.000000 0.000000 10.661231 15.082337 -10.550509 0.773442 -11.905568 -0.122050 -2.439833 2.419140 -16.065766 0.000000 0.000000 0.000000
41.951818 65.970899 333.487706 -1.923337 -3.455883 12.513718 0.238602 -0.051792 -12.637222 0.153400 -0.024959 -0.078370 -13.827336 -6.945494 -3.010951 0.000000 0.000000 0.000000 -17.014386 10.958220 -0.459542 2.041039 2.051598 8.690837 17.401623 15.565198 -4.914123 -24.433628 -14.717291 -1.682485 0.000000 0.000000 0.000000 0.000000 0.000000 0.000000 -3.416827 -8.829740 -2.648613 -4.954962 32.381476 4.114865 -29.078506 -7.718099 -2.740943 20.772500 22.162776 -4.315990 0.000000 0.000000 0.000000 0.000000 0.000000 0.000000 -7.536388 1.335739 -13.714748 1.188000 1.155958 -1.392725 11.380061 5.843024 -8.146749 0.000000 0.000000 0.000000 10.827565 14.362809 -11.322924 0.538555 -11.194251 -0.237198 -2.314555 2.512653 -14.829169 0.000000 0.000000 0.000000
43.632175 66.048834 332.696325 -2.173542 -3.861379 13.626902 0.232839 -0.127194 -13.776324 0.208360 -0.064332 -0.089428 -15.158941 -6.880189 -3.061154 0.000000 0.000000 0.000000 -17.961973 10.683984 -0.253223 1.700958 2.786733 9.185634 17.597412 16.183410 -5.022672 -22.553292 -20.164503 -3.772079 0.000000 0.000000 0.000000 0.000000 0.000000 0.000000 -4.169106 -10.146201 -3.092703 -2.492222 36.077794 3.414440 -31.921290 -8.151414 -3.566221 22.400520 21.367043 -4.082116 0.000000 0.000000 0.000000 0.000000 0.000000 0.000000 -8.332592 1.827393 -14.886672 1.212114 0.866455 -1.693454 12.004960 6.388636 -6.629988 0.000000 0.000000 0.000000 10.462062 13.716154 -12.560558 0.257408 -10.527068 -0.463341 -1.708879 2.704767 -13.360325 0.000000 0.000000 0.000000
44.987252 66.117945 332.060760 -2.207652 -4.365082 15.048374 0.227852 -0.242071 -15.213249 0.275173 -0.110471 -0.091404 -16.537214 -6.345099 -2.904828 0.000000 0.000000 0.000000 -17.762162 10.788520 -0.057934 0.738885 3.039477 9.251635 17.085270 15.551613 -4.970156 -20.377946 -20.976049 -3.721990 0.000000 0.000000 0.000000 0.000000 0.000000 0.000000 -4.619236 -10.954184 -3.474167 -0.277922 38.390963 2.512068 -33.882791 -7.035998 -3.988675 23.532328 15.618052 -3.067870 0.000000 0.000000 0.000000 0.000000 0.000000 0.000000 -8.844732 2.510502 -16.282920 0.928706 0.682104 -1.955768 12.454769 6.671124 -4.960115 0.000000 0.000000 0.000000 9.754120 13.369101 -14.110164 0.363489 -10.145051 -0.607307 -1.300553 3.000067 -11.713850 0.000000 0.000000 0.000000
46.132593 66.140555 331.488489 -2.195421 -4.808435 16.322923 0.040115 -0.411313 -16.500135 0.259282 -0.184484 -0.102403 -18.702974 -6.019865 -2.800290 0.000000 0.000000 0.000000 -16.867247 10.262109 0.132995 -0.037003 4.810728 9.271678 18.234349 10.413720 -4.898097 -21.936144 -15.952149 -2.087035 0.000000 0.000000 0.000000 0.000000 0.000000 0.000000 -4.262992 -11.374667 -3.792876 -0.829186 40.005336 2.975354 -32.335789 -3.770085 -4.343493 22.961508 5.503924 -0.659201 0.000000 0.000000 0.000000 0.000000 0.000000 0.000000 -9.324351 2.956464 -17.562380 0.724093 0.825511 -2.088349 12.806254 6.764976 -3.598033 0.000000 0.000000 0.000000 9.505244 12.839023 -15.516813 -0.203823 -9.630860 -0.868724 -0.728851 3.214022 -10.295868 0.000000 0.000000 0.000000
46.757995 66.108342 331.234719 -2.225794 -5.405523 17.683508 0.019262 -0.469536 -17.877201 0.275230 -0.218953 -0.107505 -20.492891 -5.645121 -2.639789 0.000000 0.000000 0.000000 -14.935356 9.557481 0.254770 -1.003462 6.108871 8.727334 19.316356 7.482924 -4.736720 -22.879899 -11.589582 -0.393810 0.000000 0.000000 0.000000 0.000000 0.000000 0.000000 -3.747023 -11.359254 -3.994077 -0.346507 40.385826 2.646726 -30.156130 -12.363741 -3.496175 19.216653 7.313103 -3.438305 0.000000 0.000000 0.000000 0.000000 0.000000 0.000000 -9.135264 3.846870 -18.800031 0.334300 0.701820 -2.234040 12.955657 6.632845 -2.385064 0.000000 0.000000 0.000000 9.978961 12.628333 -17.025922 -1.025822 -9.297085 -1.123519 -0.410070 3.230968 -9.047172 0.000000 0.000000 0.000000
46.831515 66.037893 331.261068 -2.302068 -5.986670 19.066914 0.061330 -0.469041 -19.280289 0.320354 -0.213671 -0.110883 -21.256089 -5.512107 -2.603489 0.000000 0.000000 0.000000 -11.823739 9.013681 0.283968 -2.668558 6.880728 7.839120 18.941262 2.630816 -4.269867 -19.594879 -7.372269 1.219578 0.000000 0.000000 0.000000 0.000000 0.000000 0.000000 -3.124422 -11.063544 -4.094529 -2.435447 40.679499 3.771603 -26.964064 -25.902463 -1.963725 16.863839 14.279491 -7.807103 0.000000 0.000000 0.000000 0.000000 0.000000 0.000000 -8.334920 4.780810 -20.028386 -0.304294 0.487963 -2.365808 12.905413 6.305133 -1.259061 0.000000 0.000000 0.000000 11.086575 12.511914 -18.550612 -1.852255 -9.076761 -1.284403 -0.586355 3.027599 -7.961111 0.000000 0.000000 0.000000
46.978539 66.010179 331.255155 -2.736378 -6.775226 20.474635 0.297178 -0.428105 -20.749178 0.465749 -0.138457 -0.120749 -20.621508 -4.748587 -2.291829 0.000000 0.000000 0.000000 -9.317414 8.550735 0.347715 -3.656368 7.545218 7.026161 14.893355 -2.633039 -3.800855 -15.158623 -0.375389 3.153068 0.000000 0.000000 0.000000 0.000000 0.000000 0.000000 -3.168588 -10.714097 -4.112012 -1.646561 41.078625 3.349001 -20.963231 -31.476833 0.292873 10.291071 14.886802 -7.574919 0.000000 0.000000 0.000000 0.000000 0.000000 0.000000 -7.317593 5.788091 -21.338538 -0.751274 0.322841 -2.486169 12.900890 5.976891 -0.134214 0.000000 0.000000 0.000000 12.386243 12.469667 -20.152246 -2.413581 -8.766577 -1.373971 -0.773963 2.735572 -6.901069 0.000000 0.000000 0.000000
